PathFileType	4	(X/Y/Z)	 s06c0402.trc
DataRate	CameraRate	NumFrames	NumMarkers	Units	OrigDataRate	OrigDataStartFrame	OrigNumFrames
200	200	4	48	mm	200	1501	2000
Frame#	Time	racr			lacr			c7			jug			rlel			rdr			llel			ldr			s2			lic			ric			lasi			rasi			rpsi			lpsi			rgt			lgt			rth1			rth2			rth3			rth4			rlfc			rmfc			rsh1			rsh2			rsh3			rsh4			rlmal			rcal			rtoe			rmt5			lth1			lth2			lth4			lth3			llfc			lmfc			llmal			lcal			lmt5			lsh1			lsh2			lsh3			lsh4			ltoe			SBIKE			LBIKE			RBIKE			
		X1	Y1	Z1	X2	Y2	Z2	X3	Y3	Z3	X4	Y4	Z4	X5	Y5	Z5	X6	Y6	Z6	X7	Y7	Z7	X8	Y8	Z8	X9	Y9	Z9	X10	Y10	Z10	X11	Y11	Z11	X12	Y12	Z12	X13	Y13	Z13	X14	Y14	Z14	X15	Y15	Z15	X16	Y16	Z16	X17	Y17	Z17	X18	Y18	Z18	X19	Y19	Z19	X20	Y20	Z20	X21	Y21	Z21	X22	Y22	Z22	X23	Y23	Z23	X24	Y24	Z24	X25	Y25	Z25	X26	Y26	Z26	X27	Y27	Z27	X28	Y28	Z28	X29	Y29	Z29	X30	Y30	Z30	X31	Y31	Z31	X32	Y32	Z32	X33	Y33	Z33	X34	Y34	Z34	X35	Y35	Z35	X36	Y36	Z36	X37	Y37	Z37	X38	Y38	Z38	X39	Y39	Z39	X40	Y40	Z40	X41	Y41	Z41	X42	Y42	Z42	X43	Y43	Z43	X44	Y44	Z44	X45	Y45	Z45	X46	Y46	Z46	X47	Y47	Z47	X48	Y48	Z48	
1501	7.5050	781.941861	1224.213736	-78.651386	787.779984	1185.949307	-400.988918	820.078424	1289.534479	-245.739023	738.030937	1139.549616	-234.859328	574.139202	1105.863207	71.820740	686.457479	945.389910	-30.469235	570.963678	1076.219950	-537.541345	667.773482	936.008110	-410.930351	230.585621	1223.945366	-208.156290	366.085062	1190.759093	-389.102565	376.339533	1130.129503	-59.300192	387.405868	1123.778825	-374.392767	391.331557	1087.276542	-101.246645	274.207581	1246.133561	-170.860851	270.994601	1258.933602	-231.012883	301.656520	1051.822975	-44.695809	351.953771	1156.341514	-412.761329	312.698838	929.360725	-28.705783	327.334083	840.056482	-32.804647	297.242643	759.325043	-40.655700	363.567414	838.878715	-45.101840	277.735895	652.949426	-52.113368	273.978188	626.843932	-166.327072	228.393201	540.915668	-27.157284	219.505987	455.500073	-44.341068	170.220526	383.685512	-49.373584	245.683738	449.418149	-73.545070	138.008578	313.901393	-57.246802	87.111822	339.631094	-106.847744	221.269567	97.676221	-92.666816	149.706265	170.363452	-30.136953	408.139774	1057.473307	-427.889959	485.390010	1017.765290	-417.966640	506.222977	1041.334166	-396.543156	534.330404	942.208858	-417.338522	578.387231	834.655988	-385.385142	573.503112	820.085885	-265.089809	282.661947	594.049267	-382.651085	199.977902	603.755764	-339.280910	346.494249	467.955755	-403.192502	499.509511	758.686841	-406.209965	446.028690	691.677368	-390.329210	364.868675	655.609416	-391.522701	464.331199	673.791752	-360.891651	420.482437	429.080274	-340.392505	-156.936826	858.065321	-214.517116	-49.499608	84.210213	-414.554991	-49.246045	80.428948	-17.197614	
1502	7.5100	782.941544	1222.799704	-79.104678	787.873978	1183.343131	-400.558182	821.564887	1288.505057	-246.543249	738.347789	1139.042685	-235.315096	575.099906	1105.673201	71.561679	686.140605	944.513926	-30.551816	570.021098	1075.882609	-537.280292	666.901252	936.143220	-410.314211	231.559395	1227.522064	-209.236867	366.118579	1192.437081	-389.759689	375.017033	1133.876425	-58.666603	387.414835	1123.456344	-374.518616	390.558544	1090.132047	-101.116032	274.975179	1249.798947	-172.012658	272.025578	1262.374020	-232.306836	301.067916	1054.718858	-45.139521	351.686439	1158.458455	-413.166283	316.025767	931.107196	-29.397045	333.183939	842.201594	-34.286159	305.665893	760.422149	-42.200170	369.404079	841.827726	-46.303454	286.690275	653.612540	-53.573659	280.316167	628.504671	-166.845520	232.716365	543.508052	-28.129449	219.924193	458.938332	-45.803771	167.528385	389.160501	-50.750189	245.435469	451.766797	-75.344950	132.083916	320.702806	-58.380097	80.942882	346.992765	-107.753729	211.707865	103.473879	-92.014033	140.745798	177.243680	-30.536339	406.449857	1059.170645	-429.009121	483.281714	1018.300740	-418.545866	503.988683	1041.654036	-397.381565	531.218175	942.333179	-418.255777	574.059103	833.267004	-386.722160	569.588565	817.979784	-266.528706	283.408557	585.139688	-382.940730	199.848367	591.387231	-339.280844	353.220732	463.123795	-403.488975	495.320010	755.774634	-407.600213	443.777962	687.325251	-391.663971	363.512225	649.168210	-392.349177	462.666446	669.756004	-362.460213	429.535071	428.790851	-341.339746	-157.047559	858.109433	-214.729734	-49.501795	84.232712	-414.575989	-49.252980	80.470195	-17.219930	
1503	7.5150	783.769533	1221.648103	-79.465063	787.874869	1180.903513	-400.232555	822.977141	1287.548549	-247.176869	738.419971	1138.717684	-235.530842	576.166738	1105.564208	71.583772	685.805032	943.877090	-30.621832	568.878862	1075.456795	-536.896946	665.733198	936.234834	-409.589148	232.612710	1230.904194	-210.270948	366.455105	1193.792066	-390.387085	374.011170	1136.991725	-58.854304	387.431875	1123.081173	-374.619629	390.277727	1093.599799	-100.070618	276.065131	1252.944698	-173.954267	273.057806	1265.522692	-233.824477	300.628240	1057.720686	-45.553027	351.309301	1160.055486	-413.790626	319.423123	932.775586	-30.373331	339.451750	844.275519	-36.464679	314.508479	761.872351	-43.839172	375.227385	845.278682	-48.180341	296.665913	654.339684	-55.047084	287.486159	630.298951	-167.130173	238.016157	546.886231	-29.053427	221.535494	463.156602	-47.174681	166.298555	395.358131	-51.645628	246.153086	455.280630	-77.344404	127.061168	328.190529	-59.147107	75.901052	355.445651	-108.294093	202.025362	109.121987	-92.225033	132.164735	184.667707	-30.974084	404.462397	1059.767244	-430.067354	480.563344	1017.817535	-419.687502	501.698421	1040.992727	-398.578776	527.547306	941.124633	-419.279216	569.014372	830.884913	-388.062987	565.223849	814.996547	-268.288480	284.111574	575.514048	-383.088053	200.344664	578.162996	-338.658896	359.570571	457.798286	-404.156259	490.985609	751.359522	-409.205036	441.327508	681.609410	-392.931643	362.150108	641.498821	-393.036429	460.960879	664.562835	-363.811063	437.805072	427.655297	-342.219849	-156.983788	858.166511	-214.746383	-49.518418	84.262342	-414.594158	-49.280839	80.515822	-17.238168	
1504	7.5200	784.457529	1220.133654	-79.898781	787.775964	1178.550997	-400.067735	824.301334	1286.792412	-247.609607	738.575699	1138.461919	-236.084049	577.315584	1105.554965	71.813448	685.507496	943.672648	-30.866762	567.513977	1074.925521	-536.402550	664.945596	936.224791	-409.043077	233.465976	1233.116484	-211.285611	367.093457	1194.970117	-390.941782	372.730707	1140.273953	-58.876904	387.457927	1122.652972	-374.694821	389.800053	1096.491829	-99.393685	276.900975	1256.127612	-175.702869	275.089948	1267.850444	-233.885143	300.380899	1060.632974	-45.883877	350.591928	1160.982705	-414.350345	323.171841	934.437882	-31.385324	345.906976	846.710555	-38.485111	323.359059	763.568457	-45.139930	382.116000	848.851910	-48.833801	307.130100	655.067197	-56.628683	295.491984	632.343642	-167.406341	244.400824	550.796619	-30.215354	223.899867	467.422737	-48.633857	166.625005	402.214990	-52.194583	246.938634	459.657463	-80.604118	123.211399	336.009681	-59.482714	71.538645	364.184968	-108.221490	191.705672	114.449892	-94.313010	124.774221	192.148808	-31.260616	402.070914	1059.618740	-431.130077	477.415082	1016.421392	-421.241159	494.597742	1038.964789	-403.619821	523.159979	938.883346	-420.771175	563.180576	827.504808	-389.576609	560.162167	810.961794	-270.303335	284.770047	565.147601	-383.130879	200.806295	564.290899	-338.492784	365.584330	451.639514	-404.772035	486.625449	745.729612	-410.826508	438.829324	674.810231	-394.028243	360.780996	632.640927	-393.646806	459.212028	657.959405	-364.645994	445.199843	425.262092	-342.468213	-157.004266	858.242544	-214.794681	-49.531122	84.338261	-414.579880	-49.301523	80.633580	-17.252967	
